<svg data-v-0dd9719b="" version="1.0" xmlns="http://www.w3.org/2000/svg" xmlns:xlink="http://www.w3.org/1999/xlink" width="100%" height="100%" viewBox="0 0 340.000000 250.000000" preserveAspectRatio="xMidYMid meet" color-interpolation-filters="sRGB" style="margin: auto;"> <rect data-v-0dd9719b="" x="0" y="0" width="100%" height="100%" fill="#fff" fill-opacity="1" class="background"></rect> <rect data-v-0dd9719b="" x="0" y="0" width="100%" height="100%" fill="url(#watermark)" fill-opacity="1" class="watermarklayer"></rect> <g data-v-0dd9719b="" fill="#333" class="icon-text-wrapper icon-svg-group iconsvg" transform="translate(68.34500122070312,94.58637428283691)"><g class="iconsvg-imagesvg" transform="translate(0,0)"><g><rect fill="#333" fill-opacity="0" stroke-width="2" x="0" y="0" width="60" height="60.8272506082725" class="image-rect"></rect> <svg x="0" y="0" width="60" height="60.8272506082725" filtersec="colorsb8823736358" class="image-svg-svg primary" style="overflow: visible;"><svg xmlns="http://www.w3.org/2000/svg" viewBox="-0.01667151227593422 -0.0010506667895242572 98.62667083740234 99.98663330078125"><path d="M4.5 70.71a49.73 49.73 0 0 0 13.39 17.61L97.16 46.7z" fill="#2a3d8f"></path><path d="M19.15 89.34a50 50 0 0 0 79.46-27.68z" fill="#272660"></path><path d="M76.66 7.71A50 50 0 0 0 0 51.29l82.29-39.45a51 51 0 0 0-5.63-4.13z" fill="#29aae1"></path><path d="M88 25L.06 52.31A50.25 50.25 0 0 0 4.15 70z" fill="#1f76bb"></path></svg></svg> <!----></g></g> <g transform="translate(67,7.208623886108398)"><g data-gra="path-name" fill-rule="" class="tp-name iconsvg-namesvg"><g transform="scale(1)"><g><path d="M24.38 0.65C37.05 0.65 44.72-3.77 44.72-15.28L44.72-45.11 31.85-45.11 31.85-16.19C31.85-13.78 30.81-10.4 24.38-10.4 18.14-10.4 17.03-13.26 17.03-16.19L17.03-45.11 4.09-45.11 4.09-15.28C4.09-2.6 11.7 0.65 24.38 0.65ZM85.41 0L99.19 0 82.75-45.11 65.26-45.11 48.69 0 62.21 0 65.39-9.49 82.29-9.49ZM68.84-19.89L73.52-34 74.3-34 78.91-19.89ZM125 0.65C130.52 0.65 136.96-0.39 140.4-1.43L140.4-27.5 121.88-27.5 121.88-16.71 128.5-16.71 128.5-10.14C127.53-10.08 127.4-10.08 125.65-10.08 117.59-10.08 116.29-13.13 116.29-22.55 116.29-31.59 118.69-34.84 126.23-34.84 129.68-34.84 133.84-34.26 137.48-33.02L137.48-44.27C134.81-45.11 129.48-45.76 125.13-45.76 110.89-45.76 101.99-39.98 101.99-22.55 101.99-3.64 110.5 0.65 125 0.65Z" transform="translate(-4.090000152587891, 45.7599983215332)"></path></g> <!----> <!----> <!----> <!----> <!----> <!----> <!----></g></g> <!----></g></g><defs v-gra="od"></defs></svg>